<svg width="959" height="945" xmlns="http://www.w3.org/2000/svg">

 <g>
  <title>background</title>
  <rect fill="none" id="canvas_background" height="602" width="802" y="-1" x="-1"/>
 </g>
 <g>
  <title>Layer 1</title>
  <path id="svg_1" d="m670.29999,881.59998c9.22003,-0.33997 23.20001,4.91998 19.31,16.78998c-6.83997,14.20001 -24.51001,16.42004 -38.48999,17.87006c-12.33002,3.64996 -15.91998,-17.20001 -28.96002,-11.19c-13.97998,1.01996 -11.42999,15.83997 -16.71997,24.46997c-13.14001,8.27002 -30.34003,19.28998 -46.01001,11.08002c-6.75,-5.34003 -4.65997,-15.65002 1.06,-20.98999c12.63,-10.80005 29.57001,-16.89001 46.28998,-13.86005c6.17004,1.5 9.17004,-6.73999 15.15002,-5.40997c9.34998,1.34998 14.41998,-8.82001 22.20001,-12.19c7.94,-4.44 17.20996,-5.84998 26.16998,-6.57001m-0.95001,5.16998c-10.70001,0.33002 -23.94,3.72003 -30.25,12.13c12.34003,-2.83997 26.26001,-7.58997 37.67004,-7.01996c-9.60004,7.75995 -27.25,6.08997 -36.92004,14.06c13.92999,6.16998 34.10999,3.51996 43.85999,-9.05005c4.19,-8.77997 -7.82996,-12.32996 -14.35999,-10.12m-79.63,23.95001c-10.32996,1.85999 -20.40997,6.85999 -27.87,14.29999c-3.85999,3.39001 -1.84998,10.36005 3.10004,11.53003c14.17999,2.60999 27.88,-5.29999 37.54999,-15.07001c1.20001,-1.10999 2.69,-5.62 -0.12,-4.81c-11.81,4.04999 -23.70001,7.87 -35.35999,12.33002c-0.67004,-0.75 -1.82001,-2.71002 -0.35004,-3.16003c11.20001,-4.89996 22.28998,-10.16998 33.91003,-14.03998c-1.33002,-3.46002 -7.60004,-0.53998 -10.86005,-1.08002zm-302.29996,-29.20001c14.20999,0.45001 28.81,4.69 38.87,15.29004c3.70001,4.13 9.25,3.66998 14.22,3.58997c11.14999,11.09003 28.42999,0.5 41.16,8.92999c11.69,4.06 29.10999,16.87 19.01999,30.34003c-15.75,10.06 -34.5,-1.78003 -47.70999,-10.73999c-2.45001,-10.29004 -5.26999,-24.01001 -18.54999,-24.06c-11.44,-3.91003 -14.57001,14.02997 -25.80002,11.46997c-14.01001,-1.32996 -31.81,-3.39001 -38.91,-17.39996c-4.73999,-11.35004 8.49002,-17.51001 17.70001,-17.42004m-7.31,5.16003c-4.86002,1.14001 -7.79001,7.40997 -4.09,11.56c10.38998,11.08002 29.70999,13.89996 42.84998,7.58002c-8.97998,-7.64001 -27.20999,-6.25 -36.67999,-13.94c11.27002,-0.45001 25.39001,4.12 37.67001,7.01996c-8.82001,-10.88995 -25.91,-13.26001 -39.75,-12.21997m79.34998,23.70001c3.70001,6.97998 28.95001,8.82996 32.92001,18.00995c-11.67999,-2.33997 -24.79001,-9.01996 -37.31,-11.78998c1.22,9.84003 13.62,14.03003 21.29999,18.20001c7.03,4.12 27.01001,4.52997 21.76001,-8.60999c-9.60001,-10.70001 -24.33002,-16.66003 -38.67001,-15.81zm258.20004,-83.90002c5.08997,-1.37 10.28998,2.23999 12.37,6.73999c10.12,21.02002 -8.53003,51.92999 -32.66003,45.82001c-13.97998,-4 -30.27997,-16.02002 -27.35999,-32.27997c5.54004,-14.31006 22.67999,-4.87006 31.82001,0.13995c2.21002,-8.45996 6.37,-18.12 15.83002,-20.41998m0.27997,6.09003c-8.85999,3.75 -12.07001,13.75 -13.85999,22.37c-7.75,-6.23004 -25.90002,-18.17004 -29.92999,-2.71002c2.33997,15.35999 19.41998,21.67999 32.97998,23.71997c-7.42999,-7.62994 -22.03998,-12.04999 -24.90997,-23.71997c9.47998,3.20001 14.56,17.17999 25.59998,18.72998c10.98999,-4.95996 5.33002,-25.08997 11.97003,-30.54999c3.44,10.19 -3.26001,22.56 -6.84003,32.60999c8.73999,-4.54999 12.40997,-14.51996 15.32001,-23.28998c1.34998,-6.97998 -1.13,-18.56 -10.33002,-17.15997zm-281.20001,-5.99005c12.52002,-2.17999 17.16,10.92004 20.58002,20.04004c9.12,-2.70001 21.20999,-13.28003 29.69998,-3.57001c9.23001,17.33002 -12.34998,33.73999 -27.69998,36.54999c-26.11002,5.15002 -46.55002,-38.82001 -22.58002,-53.02002m1.52002,6.06c-16.01001,8.43005 -4.41,33.25 7.81,40.38c-3.31,-10.08997 -11.19,-23.17999 -6.06,-32.84998c5.94,7.27002 0.28,25.46002 11.16,30.77997c9.22,-2.87 16.23999,-11.17999 22.63998,-18.35999c1.76999,-0.98999 3.98001,-0.44 2.83002,1.92004c-5.90002,9.37 -16.59003,15.01996 -24.86002,21.29999c13.69,-1.72003 30.59,-8.25 33.14001,-23.51001c-4.22,-15.90002 -22.13,-3.25 -29.98001,2.64996c-1.87,-8.75995 -5.92999,-22.50995 -16.67999,-22.31zm550.79999,-147.09998c5,-0.08002 9.96002,3.77002 11.35999,8.5c1.22998,17.83997 -14.06,31.96997 -27.81,40.51001c-10.52997,-2.53003 -24.40002,-1.75 -27.27997,10.89996c-5.81,10.04004 10.06,17.77002 2.72998,27.36005c-5.04999,13.56995 -13.46002,28.76996 -28.91003,31.65997c-11.96997,-1.71997 -13.75,-16.71997 -8.71997,-25.77002c4.65002,-13.76996 15.21002,-24.72998 28.04999,-31.15997c4.41003,-6.10999 4.96002,-14.33002 13.29999,-17.46002c2.70001,-19.69 16.37,-41.14996 37.28003,-44.53998m-4.16998,5.03998c-12.85004,6.17999 -23.49005,18.57001 -26,32.79999c9.17999,-7.42999 16.27997,-22.00995 27.04999,-28.01996c-4.16003,12.35999 -18.08002,20.81 -21.77002,33.52997c13.52002,-1.60999 23.31,-14.37 29.10999,-25.57001c3.40002,-5.63995 -0.31,-16.69995 -8.38995,-12.73999m-51.31,65.85004c-12.20001,8.45996 -25.24005,25.57001 -19.09003,40.23999c17.89001,4.53998 31.04999,-24.10999 26.53003,-37.59003c-7.74005,8.25 -14.09003,19.5 -20.82001,29.17999c-0.33002,1.83002 -4,2.42004 -3.10004,-0.06c4.77002,-11.44995 12.60004,-21.51001 18.60999,-32.38c-0.52997,0.15002 -1.59998,0.46002 -2.12994,0.61005zm-764.50003,-71.10004c13.64001,0.51001 23.39001,12.27002 30.70999,22.64001c6.31001,8.03998 3.12,20.90997 12.53,26.38c6.12,2.62 3.46001,11.71002 9.84,14.28998c14.4,6.72003 24.13,20.78003 28.29002,35.79999c2.76999,8.62006 -1.92001,19.26001 -11.47,19.84003c-17.73,-4.73999 -27.48,-24.27002 -29.86002,-40.77997c7.67,-8.70001 6.76,-23.26001 -4.04,-29.15002c-6.89,-5.23999 -15.45,3.10999 -22.28,-1.39001c-10.36,-9.45001 -23.79,-19.52002 -24.34,-34.88c-1.57,-6.45001 4.58,-12.16998 10.62,-12.75m-0.53,4.79004c-12.52,14.54999 11.35,35.62 26.03,38.63995c-3.91,-12.60999 -17.5,-21.23999 -21.70999,-33.58997c11,6.02997 17.85001,20.73999 27.05,28.10999c-3.06001,-14.5 -15.38,-32.26001 -31.37,-33.15997m54.59,65.53998c6.09,10.59003 13.03001,20.69 18.52,31.60999c0.69,1.84003 -0.28999,3.07001 -2.17999,2.14001c-6.89999,-10.22003 -13.61,-21.87 -21.64,-30.46002c-4.76,11.64001 5.11001,27.29004 14.33,35.65002c4.03999,4.06 13.28999,4.77997 14.58,-2.16998c-1.22,-14.67004 -9.92,-30.49005 -23.61001,-36.77002zm682.20005,-81.28003c18.07996,-0.33997 24.69,21.38 24.44,36.35004c-1.93005,26 -44.20001,33.71997 -56.95001,11.97998c-4.54004,-15.08997 13.87,-19.08002 24.83997,-19.15997c-2.46997,-9.72003 -5.89996,-26.44 7.67004,-29.17004m1.38995,5.90002c-11.34998,4.40997 -5.90997,21.29999 -0.62,29.39001c-9.60999,-3.96002 -33.19,0.01001 -26.66998,14.41998c10.22998,9.96002 28.46997,7.28003 39.01001,-0.64001c-7.30005,-1.71997 -25.74005,3.98999 -32.39001,-4.73999c9.54999,-0.85999 22.14996,4.79004 32.58002,0.31c0.45996,-10.47998 -5.01001,-20.09998 -10.71002,-28.51001c-0.10999,-1.32001 0.31,-4.82001 2.16998,-2.95996c7.49005,8.14996 9.82001,19.95001 13.07001,29.92999c3.41003,-10.82001 1.39001,-37.81 -16.44,-37.20001zm-657.40001,-5.97998c15.94,-2.06 16.33,19.34998 11.64999,29.33997c11.02,-0.13 29.38,4.06 24.84001,19.08002c-11.08,19.03003 -43.91,15.54999 -54.41,-2.54999c-6.07,-15.78003 -0.36,-40.60004 17.92,-45.87m-2.75,5.94c-13.03,6.89996 -14.32001,26.59998 -11.07001,37.31c3.32001,-9.79999 5.40001,-21.91003 13.04001,-30c1.84999,-1.86005 2.27,1.63995 2.17,2.95996c-5.53999,8.40002 -11.38,17.92999 -10.62,28.35004c10.12999,5.08997 23,-1.28003 32.48999,-0.15002c-6.69,8.95001 -24.87,2.66998 -32.39,4.78003c10.56,8.31 29.63,10.72998 39.36002,-0.08002c5.13,-14.17999 -17.42001,-17.53003 -26.94002,-13.59998c6.48001,-8.97003 10.64,-32.40002 -6.03999,-29.57001zm726.49998,-239.80002c19.59003,0.28 37.89001,21.91998 31.79999,40.51999c-7.03998,14.43002 -25.40997,30.01001 -41.89996,20.79001c-11.33002,-10.23999 1.77997,-22.79001 9.72998,-29.79001c-14.69,-5.35001 -21.33997,-32.85999 0.37,-31.51999m-3.45001,4.45999c-13.5,8.70999 3.43005,23.80002 12.58002,27.20001c-8.27002,3.85001 -26.53998,18.47 -12.58997,27.70999c15.15997,2.08002 26.81995,-11.47 31.94,-24.10001c-9.30005,6.28 -17.71002,16.08002 -29.61005,17.04001c3.72003,-9.45999 22.73999,-8.95999 26.44,-20.73001c-4.71997,-11.04999 -22.70001,-10.82999 -26.44,-20.06998c11.80005,1.00998 20.42999,10.64999 29.58002,17.03998c-5.08002,-12.59998 -16.84998,-26.10999 -31.90002,-24.09zm-788.29996,-4.51999c8.05,-1.87 19.98,2.47 18.36,12.5c0.27,9.20999 -9.07,13.42999 -13.92,19.85999c9.67,5.72 21.25,21.14001 8.47,30.04001c-22.18,7.89999 -46.94,-17.14999 -40.95,-38.38c5.56,-11.16998 15.49,-21.31 28.04,-24.01999m-0.84,5.01999c-11.27,2.66 -19.35,13.39999 -23.57,23.59c9.29,-6.28998 17.71,-16.07999 29.61,-17.03998c-3.72,9.45999 -22.74001,8.94998 -26.44,20.72998c4.72,11.04001 22.7,10.83002 26.44,20.07001c-11.8,-1.01001 -20.43,-10.64999 -29.58,-17.04001c5.08,12.60001 16.84,26.10999 31.9,24.09c13.93,-9.34 -4.46001,-23.51999 -12.81001,-27.87c14.55,-1.67001 28.81001,-30.28 4.45,-26.53zm859.09998,-43.19998c3.77997,-0.30002 9.33997,-0.85001 11.58002,3.15997c9.85999,14.36002 6.01996,33.79001 -0.38,48.56003c-10.89001,2.63998 -19.37,12.25998 -15.28003,24c0.76001,8.92999 11.44,8.67999 16.26001,13.93997c4.25,15.87003 10.25,35.18002 -2.06,49.17001c-8.40997,5.06 -18.04999,-1.84003 -21.15997,-10.09003c-5.84003,-15.12 -5.24005,-32.73999 2.62994,-47.01996c0,-7.62003 -3.13995,-14.23001 0.56006,-21.86002c-9.47003,-18.29001 -12.48004,-48 7.84998,-59.86002m0.46002,4.92001c-13.66003,8.10001 -11.14001,31.29999 -7.24005,44.88c4.91003,-9.91 -0.13995,-29.85001 6.78003,-38.04999c3.08997,11.44 -3.16998,27.26999 1.21997,39.63998c11.20001,-10.23999 17.17004,-40.88998 -0.75995,-46.47m0.75,83.89999c-4.34003,12.38 2.07996,28.26001 -1.22003,39.62c-7.33997,-7.97998 -1.89001,-28 -6.75,-38c-5.5,13.69 -3.5,29.82001 2.72998,42.66003c7.11005,6.62994 14.41003,-2.90002 14.96002,-10.07001c0.65997,-11.20001 -0.62,-26.90002 -9.71997,-34.21002zm-927.50003,-88.79999c23.12,1.66998 23.56,35.56 16.97,52.06998c-6.74,9.04001 1.81,18.69 -3.47,28.26001c8.57,16.92999 11.38,40.19003 -1.66,55.63998c-5.18,6.75 -17.61,6.17004 -20.08,-2.73999c-7.07,-13 -2.34,-27.41 0.46,-40.78998c1.94,-8.15002 13.93,-6.05002 16.51,-13.71002c2.61,-7.03998 2.95,-17.79999 -4.41,-22.06c-7.55,-2.10999 -14.03,-6.91998 -13.22,-15.66998c-4.02,-13.11002 -6.32,-35.08002 8.9,-41m2.93,4.82999c-14.81,10.11002 -9.06,34.26999 0.79,46.66c6.52,-10.95001 -3.1,-30.29999 2.75,-39.78c4.92,9.87 2.66,26.44 5.19,37.69c6.1,-11.23999 7.98,-40.79001 -8.73,-44.57001m0.78,83.86002c-9.04,10.88998 -11.76,27.38 -7.05,40.67999c1.82,6.03998 9.42,7.92999 13.51,3.26001c5.65,-12.98004 7.42,-28.61002 2.26,-42.24002c-4.92,9.91 0.14,29.84 -6.78,38.05002c-3.4,-11.38 4.06,-28.59003 -1.94,-39.75zm773.49999,-280.70003c11.72003,-1.44 27.92999,-0.14 34.04004,11.68001c13.16998,15.01999 0.17999,54.48999 -23.68005,46.94998c-8.32996,-6.81998 -5.84998,-18.96999 -3.20996,-27.88998c-8.81,-1.06 -20.62,-0.96001 -24.79004,-10.47c-3.94,-10.98 7.93005,-19.45 17.64001,-20.27m2.65002,3.85001c-6.92999,1.08 -17.35004,5.06 -14.81,13.89c5.51001,8.69 18.38,9.89999 27.45001,6.67c-4.67004,8.67 -10.68005,25.86 1.53998,30.00999c17.40997,-1.04001 19.37,-26.42 15.78998,-37.59c-3.32001,9.8 -5.40997,21.91 -13.03998,30c-1.84998,1.85001 -2.28003,-1.64999 -2.16998,-2.95999c5.53998,-8.40001 11.38,-17.94 10.62,-28.35001c-10.04004,-5.63 -24.27002,2.39999 -32.59003,-0.64999c9.06,-6.90001 22.37,-3.28 32.85999,-3.26001c-5.91998,-7.08 -17.07996,-7.17999 -25.64996,-7.75999zm-637.70003,-3.90001c12.14,-3.03999 33,3.18001 30.73,18.81001c-3.07001,10.78 -16.12999,10.89 -25.25,12.04999c2.00999,9.44 5.94,23.52 -5.34,28.71001c-16.41,3.35001 -25.93001,-15.78999 -26.35001,-29.60001c-3.37,-15.54999 10.87,-29.92999 26.21001,-29.97m6.67999,3.92001c-7.28,1.87999 -16.49001,1.07999 -21.98,7.03999c7.28999,1.72 25.73999,-3.99001 32.39,4.74001c-9.56,0.86 -22.15001,-4.79001 -32.58,-0.31c-0.46001,10.46999 5.00999,20.09999 10.71001,28.50999c0.09999,1.31 -0.32001,4.81001 -2.17001,2.96001c-7.98,-8.16 -9.37,-20.89001 -13.75,-30.38c-1.53,13.31 -1.26999,31.13998 12.46001,38.04001c16.41,1.01999 11.3,-20.80002 5.55,-30.02002c9.03,3.12001 21.98999,1.91 27.48,-6.73999c2.55,-9.81 -10.53999,-14.36 -18.11,-13.84zm656.8,-73.83c18.19,4 28.16998,24.23999 30.58002,40.81999c-7.67004,8.7 -6.76001,23.26001 4.03998,29.15001c6.88,5.22 15.45001,-3.11 22.27997,1.39c10.36005,9.45 23.78003,19.51999 24.34003,34.87999c1.94,8.83 -9.27002,15.55 -16.90997,11.81999c-18.22003,-7.33998 -28.85004,-25.85999 -32.31006,-44.18999c-9.73999,-3.60001 -7.59998,-16.10001 -17.01996,-19.60001c-13.22003,-6.87999 -21.77002,-20.37999 -25.75,-34.39c-2.57001,-8.5 1.51001,-18.51999 10.75,-19.87999m-1.65002,6.69c-4.63,0.48 -6.83997,6.06999 -4.98999,10.12c3.19,12.73 10.76001,26.42 23.20001,31.84999c-6.09003,-10.59 -13.03003,-20.68999 -18.52002,-31.60999c-0.70001,-1.85001 0.28003,-3.08 2.17999,-2.14001c6.90002,10.21001 13.60004,21.86 21.64001,30.46001c4.51001,-13.53999 -7.59998,-36.91 -23.51001,-38.67999m46.77002,68.87c3.89996,12.59999 17.48999,21.24001 21.71002,33.59c-11,-6.03 -17.85004,-20.75 -27.05005,-28.11c2.33002,14.54001 13.53003,26.87 26.51001,33.28c7.63,2.58002 11.22003,-6.92999 8.12,-12.45999c-5.5,-11.75 -15.82996,-24 -29.28998,-26.3zm-725.20001,-75.5c12.39999,0.84 14.7,16.55 9.42999,25.73c-4.64999,13.77 -15.20999,24.73 -28.05,31.16c-4.42,6.11 -4.97,14.33 -13.3,17.45999c-2.35,18.38 -13.79,35.81001 -31.04,43.35001c-8.03,4.41 -20.01,-2.78 -17.5,-12.2c0.73,-14.93001 13.82,-24.35001 23.64,-33.79001c7.24001,-5.50999 17.07,4.21001 23.98,-2.67999c10.01,-6.12 10.15,-20.03999 3.03,-28.45c2.24,-16.35001 12.08,-36.06 29.81001,-40.58m-0.76001,6.73c-14.02999,5.19 -24.75999,25.39999 -20.39999,38.62c8.05,-8.64 14.63,-20.34 21.67,-30.43001c1.79001,-1.14 2.87,0.32001 2.14999,2.08c-5.37,10.99001 -12.42999,21.02 -18.50999,31.61c12.68001,-5.53 20.24001,-19.58 23.42,-32.54999c2.09,-5.38 -3.00999,-10.94 -8.33,-9.33m-45.93999,69.09999c-12.44,3.35001 -21.71,14.8 -27,25.96001c-3,5.62 0.96,15.94 8.67,12.06c12.85,-6.18001 23.49001,-18.58 26,-32.8c-9.18,7.42 -16.28,22.00999 -27.05,28.02c2.93,-9.28 12.03,-16.04999 16.96,-24.60001c1.26,-1.59 8.33,-9.81 2.42,-8.64zm507.2,-151c24.32001,-3.75 42.08002,29.83 28.28003,49.54c-9.14001,9.60001 -23.59003,-1.75 -24.32001,-12.82c-1.87,-8.51 -9.64001,0.94001 -13.88,2.01c-7.60004,4.30001 -20.31,1.49 -20.28003,-8.88c0.16003,-16.18999 16.14001,-26.41 30.20001,-29.85m6.72998,3.9c-13.44995,1.84 -29.84998,8.43 -32.32996,23.4c4.21997,15.9 22.13,3.24 29.97998,-2.65c1.35999,9.91 9.83002,29.39 21.83002,19.52c6.96997,-13.14999 -1.45001,-30.09 -12.96002,-37.59c3.31,10.08 11.19,23.18 6.06,32.85c-5.72998,-7.32 -0.64001,-24.34 -10.40997,-30.63c-11.45001,0.72 -16.79004,15.27 -26.38,18.57c2.25,-11.23 19.32996,-17.52 24.20996,-23.47zm-254.49997,-3.84c17.10001,-1.34 40.10001,13.42999 37.10001,32.78c-5.54001,14.31 -22.68002,4.86 -31.82001,-0.14c-1.45001,11.32 -14.17001,27.38 -25.64001,17.36c-13.04999,-17.2 -0.53998,-47.13 20.33002,-50m0.00998,3.59c7.43002,7.63 22.04001,12.05 24.91,23.72c-9.47998,-3.21 -14.56,-17.18 -25.59998,-18.73c-11,4.96 -5.33002,25.08 -11.97,30.55c-3.44,-10.2 3.25998,-22.57 6.84,-32.61c-11.87,7.41 -20.49002,25.42 -12.30002,38.19c11.75,8.48 19.86002,-10.5 21.17001,-20.11c7.75,6.23 25.89999,18.17 29.92999,2.71c-2.34,-15.36 -19.42999,-21.68 -32.98001,-23.72zm93.90002,-48.72c7.59998,-1.08 18.47998,4.47 14.04999,13.3c-11.45999,13.49 -31.38998,22.19 -48.91998,16.17c-7.69,-4.65 -14.76001,3.82 -23.02002,1.52c18.75,7.03 42.91,12.31 63.79001,5.68c2.01999,-13.46 15.66,-20.27 27.44,-23.76c12.22998,2.94 25.76999,10.1 28.23999,23.68c20.83002,6.6 45.10999,1.58 63.71002,-5.62c-8.39001,2.15 -15.91003,-5.96 -23.77002,-1.14c-17.31,5.37 -35.97,-3.23 -47.78,-15.87c-4.10001,-6.44 1.91,-14.03 9.22,-13.74c14.70001,-0.93 30.20001,3.49 41.32001,13.38c7.07001,18.34 32.31,13.28 48.09998,14.07c30.53003,-5.22 45.57001,30.13 74.02002,32.23c16.76001,-10.12 38.62,-0.33 51.44,12.12c4.91998,3.77 2.42999,11.06 -2.08002,13.91c-16.91998,2.82 -37.20001,-0.02 -48.07001,-14.78c-3.21997,-9.12 -14.63,-8.24 -21.51001,-13.47c13.01001,16.59 27.94,35.03 48.94,41.81c10.72003,-8.98 26.18005,-7.75 37.97003,-1.74c6.45001,10.13 13.52002,22.74 7.46997,34.91c12.72003,16.97 34.83002,26.29001 54.16003,33.28c-5.23999,-3.87999 -9.29004,-16.37999 -18.81,-15.87999c-17.17004,-5.82001 -26.31,-24.26001 -28.57001,-41.16c1.58997,-6.9 9.27002,-9.04 14.96997,-5.44c15.38,9.28 29.10004,26.71001 25.22003,45.67c9.45996,15.93001 25.87,25.2 40.57001,35.60001c14.97998,12.38 11.62,33.87 22.20001,48.88c3.16998,7.23 6.75995,16.61998 16.50995,15.25999c15.81,7 26.08002,23.79001 27.99005,40.70999c0.58997,5.23001 -5.02002,8.07001 -9.41003,8.63c-18.08002,-7.87 -33.46997,-26.16 -30.79999,-46.85001c-3.58002,-4.89999 -5.64001,-11.98999 -10.26001,-15.57999c2.19,19.62 3.01001,40.12 13.15002,57.63998c1.37,6.52002 9.02997,1.93002 13.04999,4.79001c9.41998,2.59 14.78998,11.34 21.23999,17.94c0.41998,12.57999 -2.02002,27.64001 -14.37,34.03c-0.08002,22.5 13.22998,41.29999 24.15002,59.82999c-0.12006,-8.03 0.44995,-18.53998 -5.76001,-25.00998c-9.30005,-14.07001 -7.61005,-33.20001 0.13,-47.60001c1.90997,-4.91 10.71997,-7.26001 13.38995,-1.89001c9.60004,14.47 10.15002,34.92001 2.11005,50.20001c-7.24005,3.45999 -6.93005,12.09 -5.30005,18.97c0.73004,21.12 18.96002,40.03 9.74005,61.62c-5.16003,16.37 -19.72003,40.78003 -3.30005,54.13c6.30005,15.34998 6.38,34.35999 -3.26996,48.34998c-2.85004,5.20001 -11.48004,3.12 -13.36005,-1.92999c-7.20996,-13.95996 -9.89996,-32.5 -0.88995,-46.26001c6.75,-6.78998 5.69995,-17.87994 6.51996,-26.32996c-11.17999,18.40997 -23.90997,37.45001 -24.13,59.83997c12.42004,6.12 13.66003,21.03003 14.44,33.23004c-7.28998,10.27997 -17.79999,21.58997 -31.84998,20c-12.71002,17.40997 -13.08002,40.33997 -15.67999,61.13c5.29999,-6.10004 12.08002,-14.91003 10.23999,-23.90002c1.23999,-17.72998 15.65997,-32.22003 31.48999,-38.47998c8.22003,0.69995 11.23004,9.81995 7.40002,16.60999c-4.82001,15.75 -16.41998,32.20001 -34.04004,33.97003c-17.69995,16.40997 -14.25995,44.37994 -30.27997,61.90997c-14.67999,11.14001 -32.17999,20.06 -41.53998,36.65002c4.17999,18.31 -9.66003,35.06995 -23.92004,45c-6.07996,2.98999 -14.88,4.37 -16.42999,-4.92004c2.60999,-18.25 13.85999,-39.87 34.27002,-41.98999c3.66998,-5.79999 9.82001,-10.02002 13.47998,-15.5c-19.64001,8.10999 -41.58002,16.28998 -54.42999,33.83002c6.03003,12.33002 -1.12,25.33997 -8.02997,35.32001c-11.91003,5.04999 -27.09003,6.88995 -37.47003,-2.23004c-20.95001,7.02002 -35.91998,25.18005 -48.91003,41.85004c5.81,-3.58002 12.58002,-5.41998 18.49005,-8.48999c8.44,-17.58002 29.98999,-22.54004 47.69995,-20.30005c6.90002,-0.39996 11.28003,10.15002 5.47003,14.44c-12.77997,12.63 -35.59998,22.53003 -52,11.91003c-29.53003,3.88 -45.40997,40.39996 -78.19,32.32001c-14.46002,0.45996 -37.81,-2.85004 -43.34998,14.20001c-11.07001,10.01996 -26.64001,14.22998 -41.33002,13.37994c-7.70001,0.45001 -13.62003,-8.08997 -8.78,-14.34998c12.04999,-12.39001 30.92996,-20.92999 48.12997,-14.90002c7.69,4.65002 14.76001,-3.81995 23.02002,-1.51996c-18.76001,-7.03003 -42.91003,-12.31 -63.79001,-5.67999c-2.01999,13.45996 -15.66,20.26996 -27.44,23.75995c-12.23001,-2.93994 -25.76999,-10.10999 -28.23999,-23.67999c-20.83002,-6.59998 -45.11002,-1.57996 -63.70999,5.62c8.37997,-2.15997 15.90997,5.96002 23.76999,1.14001c17.29999,-5.37 35.97,3.23004 47.78,15.87c4.10001,6.44 -1.92001,14.02002 -9.22,13.73999c-14.70001,0.92004 -30.20001,-3.48999 -41.32001,-13.37994c-7.07999,-18.34003 -32.31,-13.29004 -48.10001,-14.07001c-30.53,5.21997 -45.56998,-30.13 -74.01999,-32.23004c-16.75998,10.12 -38.62,0.33002 -51.43999,-12.12c-4.93001,-3.76996 -2.43001,-11.07001 2.08,-13.90997c16.92,-2.82001 37.20001,0.01996 48.07001,14.77997c3.22,9.12 14.62,8.23004 21.50998,13.47003c-13.00998,-16.59003 -27.94,-35.03003 -48.94,-41.81c-10.71999,8.97998 -26.17999,7.75 -37.96999,1.73999c-6.45,-10.13 -13.52,-22.73999 -7.47,-34.91003c-12.72,-16.96997 -34.83,-26.28998 -54.16,-33.27997c5.23001,3.87 9.29001,16.38 18.81,15.88c17.17001,5.82001 26.31001,24.26001 28.57001,41.15997c-1.59,6.90002 -9.27,9.04004 -14.97,5.44c-15.38,-9.27997 -29.10001,-26.70996 -25.22,-45.66998c-9.45999,-15.92999 -25.87,-25.20001 -40.57,-35.59998c-14.98,-12.38 -11.63,-33.88 -22.2,-48.88c-3.17,-7.23999 -6.77,-16.63 -16.51,-15.26001c-15.81,-7 -26.08,-23.79004 -27.99,-40.71002c-0.59,-5.23999 5.02,-8.07001 9.41,-8.63c18.08,7.87 33.47,26.15002 30.8,46.85004c3.58,4.88995 5.64,11.98999 10.26,15.57996c-2.19,-19.62 -3.01,-40.12 -13.15,-57.63995c-1.37,-6.52002 -9.04,-1.92999 -13.05,-4.79004c-9.42,-2.58997 -14.79,-11.33997 -21.24,-17.94c-0.42,-12.57996 2.02,-27.63995 14.37,-34.02997c0.07999,-22.5 -13.23,-41.29999 -24.15,-59.83002c0.11,8.02002 -0.46,18.53003 5.76,25.01001c9.3,14.07001 7.6,33.19 -0.13,47.59998c-1.91,4.91003 -10.73,7.25 -13.39,1.89001c-9.6,-14.46997 -10.15,-34.91998 -2.11,-50.20001c7.24,-3.45996 6.92,-12.09998 5.3,-18.96997c-0.73,-21.12003 -18.96,-40.03 -9.74,-61.62003c5.15,-16.37 19.72,-40.78 3.3,-54.12997c-6.3,-15.35001 -6.39,-34.36002 3.27,-48.35001c2.84,-5.21002 11.48,-3.12 13.36,1.92999c7.21,13.95999 9.89,32.5 0.89,46.26001c-6.76,6.78 -5.7,17.88 -6.52,26.32999c11.24,-18.29999 23.97,-37.39999 24.19,-59.79999c-12.42,-6.10001 -13.66,-21 -14.44,-33.20001c7.29,-10.28 17.8,-21.60001 31.85,-20c12.71,-17.41 13.08,-40.34 15.68,-61.13c-5.3,6.10001 -12.08,14.89999 -10.24,23.89999c-1.24,17.73001 -15.66,32.22 -31.49,38.48001c-7.84,-0.70001 -11.2,-9.16 -7.68,-15.91c4.2,-13.73001 12.85,-27.19 26.4,-33.04999c13.56001,1.06 15.27,-14.93001 21.27,-23.46001c5.37,-13.84999 5.91,-30.59999 18.01,-41c14.56999,-10.52 31.28999,-19.64999 40.45999,-35.72c-4.17999,-18.31 9.66,-35.06999 23.92,-45.00001c6.07001,-2.99 14.88,-4.38 16.43001,4.92001c-2.62,18.25 -13.86,39.87 -34.27,41.99001c-3.67999,5.78999 -9.81999,10.02 -13.48,15.5c19.64,-8.12 41.58,-16.28999 54.42999,-33.83002c-6.03,-12.32999 1.12001,-25.34999 8.03001,-35.31999c11.89999,-5.05 27.09,-6.88999 37.46999,2.23001c20.95001,-7.02 35.92001,-25.18002 48.91,-41.85001c-5.76999,3.17001 -11.73001,5.85001 -17.98999,7.95c-9.19,18.88 -32.76001,23.9 -51.67001,20.26c-3.78999,-2.59 -6.92999,-9 -2.89999,-12.77c11.39,-12.71 29.32001,-19.4 46.25,-16.91c6.62,7.92 16.12,1 23.42001,-2.42001c18.25998,-7.3 29.75998,-29.07 51.90997,-26.22c16.91,-1 45.65002,5.69 53.35001,-14.47c9.98001,-8.79 23.26001,-12.56 36.36002,-13.1m-1.58002,5.15c-12.44,1.37 -28.28,5.42 -33.97,17.36c12.16,-0.3 22.88,-6.57 34.51001,-8.9c-5.20001,8.19 -20.56,9.1 -28.42999,12.7c12.44,3.22 28.84,-3.55 37.54001,-14.09c0.64999,-4.87 -5.32001,-8.26 -9.65002,-7.07m69.94003,0c-3.90002,-0.53 -9.97003,2.4 -8.85004,7.06c8.58002,10.58 24.90002,17.28 37.45001,14.13c-7.57001,-3.5 -19.23999,-4.68 -27.21002,-10.24c-2.54999,-0.6 -1.69995,-6.45 2.60004,-1.76c9.97998,3.52 19.95001,7.49 30.64001,8.18c-5.84003,-11.84 -21.99005,-16.65 -34.63,-17.37m-36.66003,14.01c-7.66998,2.19 -16.70999,6.09 -20.31998,13.55c4.22998,4.53 11.87997,-0.93 16.81998,-2.17c8.99002,-6.83 19.18002,8.87 27.87003,2.18c-4.20001,-8.32 -14.80002,-13.75 -24.10001,-13.69m-127.89999,13.93c-25.80002,4.09 -38.59003,30.53 -43.14001,52.96c19.92001,15.38 8.06,43.56 -3.62,60.41c-4.03,2.33 -8.47,6.97 -13.42001,4.00999c-13.25,-10.64999 -8.20999,-30.7 -2.50998,-43.92c3.84998,-5.35 5.04999,-15.85 12.89999,-16.6c3.73999,-7.58 5.44998,-16.11 8.28,-24.06001c-19.01001,17.09 -37.85001,38.46 -43.67001,64.24001c11.72,6.56999 10.14001,23.25 5.32001,33.36c-11.60999,3.19 -27.17999,-3.15001 -30.22,-15.72c-26.06,-1.26001 -52.79999,8.64999 -74.25,22.14c6.75999,-0.45 21.90001,3.42 28.63,-4.36c18.66,-6.24001 53.11,-8.27 57.55,16.50999c-16.29001,17.77 -57.38,17.79001 -67.03,-8.00999c-19.94,-0.25 -42.59999,-0.15001 -56.89001,16.13998c-17.94,18.40001 -11.96,46.59999 -3.43,67.37999c27.41,1.26001 39.94,40.30002 28.00999,61.54001c-24.46999,3.20001 -32.29999,-28.72 -33.81998,-47.45999c5.26,-10 -1.49,-22.82001 -5.11001,-30.78c-4.38,25.23999 -7.25,52.66 2.59001,77.01001c13.92999,-1.85001 22.25,12.78 24.83,24.47c-9.08,6.62997 -24.38,14.62997 -33.70001,4.28c-22.67001,14.12997 -37.00999,38.10999 -47.98,61.82999c7.48,-6.31 20.62001,-9.67999 21.14,-20.59c11.15,-15.25 40.22001,-39.01999 56.63001,-18.98999c-5.01001,23.91 -36.22001,45.94998 -59.61001,32.03c-16.37,10.69 -33.91999,24.62 -36.32,45.5c-3.64,25.60001 16.96,45.57001 37,56.84c23.31,-13.97 54.81001,9.17999 58.65001,32.79999c-17.68,18.31 -44.84,-4.10999 -56.34,-19.64001c0.15,-11.40997 -14.15,-13.51996 -21.06,-20.66998c10.6,23.89001 25.08,47.83002 47.87,61.84003c9.4,-10.37 24.62,-2.23999 33.79,4.23999c-2.67999,11.70001 -10.89999,26.41998 -24.91,24.56c-10.27,24.31 -6.54,51.71997 -2.7,77.03998c4,-8.13995 10.28001,-20.57001 5.29,-30.70996c1.55,-18.58002 9.59,-52.09003 34.3,-47.10004c10.66,21.40002 -1.14999,59.82001 -28.46999,61.10004c-9.78,21.07001 -14.25,50.65997 4.75001,68.94c14.59,14.44995 37.15999,15.89996 55.92999,13.89996c8.74001,-23.75 40,-21.79999 59.41,-14.38c3.66,2.89001 9.87,6.55005 6.42,12.03003c-10.55,20.37 -38.98,16.60999 -57.50999,11.23999c-6.28001,-7.78998 -21.63,-3.32001 -27.91,-4.09003c21.72,13.34003 48.45,24.43005 74.87,21.84003c1.66,-12.91998 18.68001,-18.31 29.56999,-15.40997c5.39001,10.03998 6.24002,26.75 -5.28,33.34998c5.72,25.78998 24.66,47.06 43.64001,64.26001c-3.82001,-8.89001 -3.11002,-22.51001 -12.89999,-26.03003c-10.12003,-14.92999 -19.19,-35.62 -10.68002,-53.09998c6.06,-12.76001 21.19,-2.5 23.60001,7.25c9.51001,15.45001 15.10001,39.20001 -1.63,51.70001c4.53,21.01001 15.58002,46.08997 39.12,51.97998c22.54001,7.44 41.11002,-8.23999 59.03003,-18.88c-8.49002,-27.59998 25.18997,-50.21002 49.21997,-46.83002c7.58002,10.67004 -0.95999,24.79004 -9.93997,32.08002c-9.31003,7.47998 -21.24002,17.15002 -33.40002,14.69c-6.69998,4.47998 -12.75,9.95001 -19.79999,13.97003c25.87,-2.38 54.23001,-8.82001 73.95001,-26.73004c-6.98001,-11.87 5.73999,-23.45996 14.47998,-30.47998c9.30002,6.01001 22.10001,18.64996 15.16,30.47998c19.69998,17.94 47.86996,24.34003 73.82999,26.77002c-6.42999,-4.06 -12.45996,-8.66998 -18.45001,-13.33002c-18.72998,0.15002 -38.68997,-14.39996 -46.78998,-32.02002c-0.67001,-5.71997 -2.32999,-16.46997 6.23001,-16.35999c22.94998,0.94 53.57999,21.09003 45.19998,47.77002c15.84003,9.21002 30.52002,22.91998 50.44,20.28998c28.04004,-1.13 43.33002,-29.57996 47.72003,-53.39996c-19.92004,-15.38 -8.06,-43.56 3.62,-60.41003c4.02997,-2.32996 8.45996,-6.97998 13.41998,-4.01001c13.25,10.65002 8.20001,30.70001 2.51001,43.92004c-3.85004,5.33997 -5.04999,15.84998 -12.90002,16.59998c-3.73999,7.59003 -5.45996,16.10999 -8.27997,24.06c19.01001,-17.08997 37.84998,-38.46002 43.66998,-64.23999c-11.72003,-6.57001 -10.15002,-23.25 -5.32001,-33.35999c11.60999,-3.20001 27.17999,3.14996 30.21997,15.71997c26.06,1.26001 52.80005,-8.64996 74.25,-22.14001c-6.76996,0.45001 -21.89996,-3.41998 -28.62994,4.36005c-18.67004,6.23999 -53.11005,8.26996 -57.55005,-16.51001c16.29004,-17.77002 57.38,-17.79004 67.03003,8.01001c19.94,0.25 42.59998,0.14996 56.89001,-16.14001c17.94,-18.40002 11.95996,-46.59998 3.42999,-67.38c-27.41003,-1.27002 -39.94,-40.31 -28.01001,-61.53998c24.46002,-3.20001 32.29999,28.71997 33.82001,47.45996c-5.26001,10 1.48999,22.82001 5.10999,30.78003c4.38,-25.23999 7.25,-52.66003 -2.59003,-77.01001c-13.92999,1.84998 -22.25,-12.78998 -24.82996,-24.47003c9.07996,-6.62994 24.38,-14.62994 33.70001,-4.27997c22.66998,-14.13 37.00995,-38.10999 47.97998,-61.83002c-7.04004,6.27002 -20.54999,9.29999 -20.78003,19.96002c-11.15997,14.5 -28.26001,29.72998 -47.90997,26.72998c-14.73999,-2.33002 -7.79999,-19.47998 0.28998,-25.26996c11.81,-13.78003 32.39001,-25.08002 49.57001,-13.98004c16.82001,-9.58002 34.46002,-24.62 36.98999,-45.38998c3.64001,-25.60001 -16.95996,-45.57001 -37,-56.84c-23.31,13.97 -54.81,-9.18002 -58.64996,-32.80002c17.67999,-18.31 44.83997,4.11002 56.33997,19.64001c-0.14996,11.41 14.15002,13.51999 21.06,20.66998c-10.59998,-23.88998 -25.07996,-47.84 -47.87,-61.84c-9.39996,10.36002 -24.62,2.24002 -33.78998,-4.23999c2.67999,-11.70001 10.89996,-26.42999 24.90997,-24.56c10.27002,-24.31 6.54004,-51.72 2.70001,-77.04001c-4,8.14001 -10.27997,20.57001 -5.28998,30.70999c-1.54999,18.58002 -9.59003,52.09003 -34.29999,47.10001c-10.66003,-21.39999 1.14996,-59.82999 28.46997,-61.10001c9.78003,-21.06998 14.25,-50.65999 -4.75,-68.93999c-14.59003,-14.45 -37.15997,-15.91 -55.92999,-13.89999c-8.73999,23.75 -40,21.79999 -59.41003,14.37999c-3.65997,-2.89999 -9.87,-6.56 -6.41998,-12.03c10.54999,-20.37 38.97003,-16.61 57.51001,-11.23999c6.28003,7.78999 21.62,3.31 27.90997,4.09c-21.71997,-13.34 -48.44995,-24.43001 -74.87,-21.84c-1.65997,12.92 -18.67999,18.29999 -29.57001,15.40999c-5.38995,-10.03999 -6.23999,-26.75 5.28003,-33.34999c-5.71997,-25.79 -24.65997,-47.06001 -43.64001,-64.26c3.82001,8.89 3.10999,22.5 12.90002,26.03c10.12,14.93 19.19,35.62 10.67999,53.1c-6.06,12.75999 -21.19,2.5 -23.59998,-7.25c-9.52002,-15.45 -15.11005,-39.21 1.62994,-51.70001c-4.09998,-21.2 -15.19995,-46.27 -38.69995,-52.15999c-22.60004,-7.44001 -41.10004,8.23999 -59,18.87999c8.48999,27.6 -25.19,50.21 -49.22003,46.83001c-7.57999,-10.67 0.96002,-24.79 9.94,-32.08001c9.31,-7.48 21.23999,-17.16 33.40002,-14.68999c6.70001,-4.48 12.73999,-9.95 19.79999,-13.97c-25.87,2.38 -54.23999,8.82 -73.95001,26.73c6.98001,11.86 -5.73999,23.45 -14.47998,30.48c-9.30002,-6.01 -22.11002,-18.65 -15.16,-30.48c-19.70001,-17.93999 -47.87,-24.34 -73.83002,-26.77c6.43002,4.06 12.46002,8.67 18.45001,13.33c18.73001,-0.16 38.69,14.39999 46.79001,32.02c0.66998,5.71 2.32999,16.46 -6.23001,16.36c-22.79999,-1 -53.39999,-20.7 -45.39999,-47.07c-15.5,-11.17 -33.70001,-25.07 -55,-20.57m127.89999,-0.05c-5.01001,1.84 -9.66,4.81 -15.23999,4.83c0.26999,4.72 9.54999,1.25 12.69,1.41c7.06998,-1.98 16.69,3.6 21.73999,-1.33c-6.67001,-0.74 -12.42001,-5.37 -19.19,-4.91m-24.10001,7.24c-5.47,2.71 -11.64999,2.36 -17.56,2.95c27.86002,10.34 59.29001,9.95 87.26001,0.23c-14.89001,-7.52 -28.67001,4.26 -43.97,-1.12c-8.63,3.13 -17.57001,1.68 -25.73001,-2.06m1.83002,11.39c10.98999,16.14 37.5,16.13 48.47998,0c-15.89999,4.82 -32.56998,4.71 -48.47998,0m-40.20001,5.07c9.70001,6.87 22.07001,15.77 27.67999,27.64c-12.69998,-5.34 -18.29999,-23.78 -34.09998,-24.67c-4.67001,6.50999 3.22,12.48 7.10999,17.18999c7.44,9.72 22.81,24.54001 35.06,16.34c2.91,-19.11 -19.73999,-32.13 -35.68997,-36.55m127.39999,0.41c-14.62,4.22 -28.91003,13.77 -34.94,28.23999c-2.24002,5 1.54001,11.66 7.21997,10.77001c12.45001,-2.29 22.87,-10.61 29.88,-20.87001c4.17004,-3.75 10.02002,-9.77 5.79004,-15.57c-15.56,1.24 -21.87,18.95 -34.16003,24.66c2.87,-7.83 10.84003,-13.12 15.85004,-19.66c2.17999,-1.72 15.01996,-6.55 10.35999,-7.57m-270.70001,4.04c-11.59,1.75999 -31.05,4.67999 -31.47,19.13c13.08,4.87 31.98999,0.89 40.64999,-10.79c-9.67001,4.68 -20.14999,8.17 -31.00999,8.71c7.43001,-8.44 25.78999,-5.69 32.89,-15.58c-3.54001,-1.14999 -7.33002,-1.92 -11.06,-1.46999m412,-0.01c-3.81,-0.6 -11.10999,2.17 -4.63,4.33c8.46997,7.14999 23.31,4.82999 29.90997,12.73c-10.81995,-0.73 -21.33997,-3.95 -30.97998,-8.72c8.85999,11.58 27.19,15.59 40.62,10.81001c-0.89996,-15.45 -22.39996,-18.29 -34.90002,-19.15m-209.09998,6.92c1.91,5.08 7.81,5.08 9.72,0c-3.23999,0.17 -6.48999,0.17 -9.72,0m-6.48999,1.39c-3.80002,9.21 6.98999,14.22 11.38,20.69c4.17999,-6.4 15.17999,-11.47999 11.31998,-20.69c-5,0.28 -7.72,5.19 -11.69,6.99c-3.37,-2.78 -6.37997,-6.43999 -11.00998,-6.99m-162,23.42c-10.60001,9.63 -8.06,25.69 -11.41,38.38002c-3.64999,3.73999 -2.33002,-4.80002 -1.84,-7.05002c-0.62,-10.60999 3.29999,-19.96999 7.19998,-29.44c-11.66,10.07 -16.98999,29.15001 -13.17999,44.48001c0.67999,6.25999 8.47,7.84999 12.28,3.65999c8.92999,-9.22 11.85001,-22.59 11.60001,-35.07c1.60999,-5.21 1.79001,-13.50999 -4.64999,-14.96m346,-0.14999c-5.85004,2.85999 -5.39001,9.81 -3.95001,15.12c0.02002,13.10001 2.76001,28.37001 13.83002,36.64c9.14996,4.26001 12.59998,-9.59 11.57001,-15.89c-1.21002,-11.87 -4.99005,-26.56 -14.67999,-33.82c5.32996,11.39 9.18994,25.68999 6.92999,37.63c-7.32001,-10.39998 -0.42999,-31.32999 -13.70001,-39.67999m-378.70001,3.32c-6.95001,4.81 -15.87,6.99 -20.09001,14.88999c-15.36,13.64 -35.34001,21 -48.99001,36.01001c25.14999,-7.11 47.13,-23.21001 64.19,-42.77c2.25,-1.75 6.09,-6.87 4.89001,-8.13m411.39996,-0.32c15.64001,24.47 41.92999,42.75999 69.75,51.22c-3.27997,-3.94 -8.53998,-6.92 -11.44995,-11.65001c-22.68005,-8.29999 -36.98004,-28.91 -58.30005,-39.56999m-448.59999,2.35c-14.56,-0.68 -20.35001,14.49 -22.06999,26.27c3.5,6.14 8.42999,-3.61 10.96999,-6.55c1.74001,-14.71999 21.64,-7.28999 26.45001,-18.14999c-4.83,-2.03 -10.22,-1.93 -15.34999,-1.57m477.59998,0.14c-15.42999,1.35 2.66003,9.39001 8.19,9.22001c12.11005,-0.8 10.71002,18.06999 21.48004,18.95999c3.20996,-15.81 -12.42004,-33.37 -29.67004,-28.18m-462.89996,8.57c-13.40001,2.66 -23.77,8.28999 -29.16,21.71001c9.86,-6.72 21.44,-13.02 29.16,-21.71001m456.39996,0.15c9.02002,8.24 19.46002,14.99 29.70001,21.56001c-6.51001,-12.14001 -15.14996,-20.52 -29.70001,-21.56001m-514.79997,2.04c-12.52,6.87999 -21.45999,20.87 -22.61,35.27c11.24001,-3.43001 14.8,-20.41 23.8,-25.34001c-1.36,10.14 -10.67999,17.39 -15.78,25.67c12.14,-4.57999 19.44,-18.12999 21.81999,-30.28999c2.83,-5.27 -4.2,-6.54 -7.23,-5.31m568.90001,-0.04001c-5.87,11.96001 6.67004,30.51001 19.40002,35.62001c-5.03003,-8.28 -14.39001,-15.51001 -15.72998,-25.65001c8.97998,5.01001 12.54999,21.78 23.81,25.36c-1.77002,-14.48 -11.42004,-34.28 -27.48004,-35.33m-498.79996,6.27c-9.63,12.56 -23.56001,21.34 -37.41,27.5c12.11,2.96001 33.04999,-2.12 35.91998,-17.83c-0.09,-2.53999 6.52002,-12.33 1.49002,-9.67m431.60001,-0.87c0.39996,20.58 22.37,33.37 39.46997,28.37999c-15.01001,-5.82999 -28.13,-17.04999 -39.46997,-28.37999m-431.39999,21.11c-1.61002,4.11 -2.83002,8.36 -4.12003,12.56999c-4.08998,0.98001 -13.53999,-2.95 -12.58998,4.06c4.61,6.77 14.03999,5.04001 21.03999,7.08c-0.10999,-8 5.44,-19.06999 -4.32999,-23.70999m432.39999,-0.12001c-8.27002,5.88 -2.88,15.64 -3.42999,23.68001c7.02997,-1.71001 16.38995,-0.44 21.08997,-6.92c0.94,-7.02 -8.51001,-3.09 -12.59998,-4.07001c-1.65002,-4.20999 -1.54004,-9.56 -5.06,-12.69m-437.70001,3.72c-2.59001,1.79001 -5.07001,3.73001 -7.58002,5.62001c4.59,3.03 9.95001,-3.02 7.58002,-5.62001m443.39996,-0.39999c-0.83997,5.08 3.62,8.06999 8.16998,6.02c-2.70996,-2.03 -5.37,-4.13 -8.16998,-6.02m-489.39998,27.39999c-4.62,1.59001 -14.89999,0.38 -16.22,5.34001c12.38,-3.06001 25.17,-0.5 36.99001,3.75c1.89999,2.61 -3.34,2.23999 -4.99001,2.12c-11.7,-3.55 -25.2,-6.32001 -36.58,-0.75c6.60001,13.59 27.70001,10.97 40.40001,11.67999c6.03,-1.04999 17.12999,-3.86 13.14,-12.62999c-7.65001,-9.55 -21.49001,-9.99001 -32.74001,-9.51001m522.50002,0.25c-8.73004,1.16 -23.60004,5.07001 -18.94,16.82001c13.45001,9.92 31.32001,4.39 46.14001,0.78999c3.81995,-0.39999 5.44995,-4.25 6.78998,-7.33c-12.97998,-8.34 -28.44,1.96001 -42.10999,0.03c9.81,-7.98 26.96997,-5.5 37.73999,-6.03c-7.15002,-5.34 -20.16998,-4.98999 -29.62,-4.28m-643.09998,86.60001c-13.33,5.44 -23.04001,17.84 -26.75,31.60999c-0.68,3.46002 2.39,8.24002 6.28,6.70001c12.18,-5.92999 22.24,-17.60001 23.72999,-31.39999c-6.07,6.88 -11.21999,20.10001 -20.67,23.28c3.5,-9.64999 18.26001,-20.25 17.41,-30.19m776.00002,-0.20999c3.09998,11.06 11.19,19.79999 18.38,28.44998c1.34998,1.34 -0.67999,2.93002 -1.99005,2.08002c-7.14996,-6.70001 -13.43994,-14.96002 -17.82996,-23.24002c-0.32001,11.54001 10.45001,25.44 22.28998,30.93002c3.66998,2.23999 7.48999,-2.19 6.97998,-5.77002c-3.25995,-14.44 -13.89996,-27.45999 -27.82996,-32.44998m-737.59999,9.95999c-7.21,12.73001 11.12001,27.70999 10.7,39.63998c-8.31999,-8.45999 -13.81,-22.38998 -16.17999,-33.56998c-2.02,14.81998 4.03,38 20.22,45.60999c9.42,-0.22998 9.47,-11.60001 7.45,-18.35999c-4.78999,-11.42001 -8.56,-30.09 -22.19,-33.32001m698.8,0.17001c-11.59003,4.78 -15.16998,21.09 -20.41998,31.45999c-2.29004,6.79001 -2.68005,19.82001 7.13995,20c16.09003,-7.54001 22.53003,-30.77002 20.23999,-45.58002c-2.71997,11.09 -7.65997,25.22 -16.19995,33.59c-1.22003,-11.10999 20.45996,-30.32999 9.23999,-39.46997m-724.50002,22.38998c-9.63,11.86002 -4.54,27.98999 -14.04,39.75998c0.29,15.55002 -12.82999,26.10001 -12.57999,41.67001c18.22,-21.70001 28.91,-55.51999 26.62,-81.42999m751.30001,-0.80002c-1.16003,29.05002 8.47998,59.66 26.92999,82.12003c-0.35999,-15.18002 -11.70001,-25.93002 -12.73999,-40.88c-8.64001,-12.71002 -4.83002,-28.78 -14.19,-41.24002m-767.8,16.40002c-19.16,4.25998 -27.47,30.59998 -12.15,43.60999c7.22,-8.79001 -4.68,-22.20001 5.93,-29.13c2.58,-3.16 11.07,-11.44998 6.22,-14.47998m783.8,0.01999c-2.71002,7.13998 7.83997,14.09 11.58997,19.98001c0.23999,7.72998 -3.52997,16.62997 1.36005,23.62c15.69995,-13.03 6.62,-40.35001 -12.95001,-43.60001m-764.90004,4.88c-0.34,16.23999 -6.53,31.48999 -14.3,45.5c19.06,-5.75 26.6,-31.60999 14.3,-45.5m745.20003,-0.04999c-9.62,16.87997 -2.85004,38.91998 15.85999,45.64999c-8.94,-13.77002 -12.34003,-31.79001 -15.85999,-45.64999m-759.90004,2.19998c-3.13,7.67001 -14.53,12.08002 -10.71999,21.89999c1.13,3.71002 -2.57,10.30002 1.17,11.61002c2.2,-10.88 9.4,-26.14001 9.55,-33.51001m774.8,-0.63c3.72998,11.40002 8.25,22.35001 10.89996,34.11002c5.42004,-10.19 -0.45996,-26.5 -10.89996,-34.11002m-745.20003,15.42001c-5.42,2.53 1.34,9.17999 0.75999,13.41c-3.27,2.59 -6.85999,4.76001 -10,7.53c6.45,7.66 15.91,-0.54001 22.88,-3.32001c-3.24001,-6.41998 -5.58,-16.29001 -13.64,-17.62m716.09999,0.10999c-7.53003,1.98001 -9.65002,11.41 -12.91998,17.48001c7.00995,2.86002 15.51996,10.38 22.77997,4.17001c-1.90002,-5.06 -12.56,-5.66 -9.15002,-12.02002c1.51001,-2.78 4.15002,-9.53 -0.70996,-9.63m-722.09999,6.80002c-7.35,13.09 9.21,5.69 0,0m728.20003,0.29999c-7.48999,8.45001 8.91998,9.85999 0,0m-793.59999,9.96002c-12.88,10.50998 -8.48,32.48999 -1.48,45.88998c6.69,-9.99002 0.17,-25.12 3.8,-36.49002c5.69,7.76001 2.96,22.46002 2.92,31.07001c6.11,-8.85999 7.53,-36.38998 -5.24,-40.47m856.90004,-0.16998c-7.66003,11.25998 -9.39001,29.89999 -2.26001,40.63998c-0.70001,-8.63998 -1.37,-23.01001 2.63,-30.82999c4.70001,10.22998 -3.01001,26.76999 4.08997,36.29999c5.90002,-11.09 8.69,-24.44 4.52002,-36.60999c0.42999,-4.99002 -3.79999,-10.37003 -8.97998,-9.5m-787.90004,26.35999c-14.58,2.48001 -27.47,12.72 -34.5,25.42001c9.49,-8.02002 21.29,-16.89001 34.21,-17.41c-10.18999,8.82001 -26.39999,9.54001 -33.25,22.72998c-0.64,5.31003 6.44,4.98001 9.91,3.79001c13.68,-6.20999 30.66,-11.32001 35.95,-27.20999c0.95,-6.66 -7.29001,-8.63 -12.32001,-7.32001m717.00002,-0.04999c-5.15002,-0.61002 -9.25,4.97998 -6.77002,9.63c6.78003,14.28 22.65002,19.37997 36.07001,25.14999c3.20001,1.06 10.03998,0.97998 9.10999,-4.01001c-6.64996,-13.54001 -23.14996,-13.69 -33.20996,-22.70999c12.81995,0.69998 24.94995,8.98999 34.20996,17.41c-7.83002,-13.66 -22.89001,-25.97 -39.40997,-25.47m-747.09999,136.79999c-6.33,0.76001 -2.5,8.26001 1.18,9.96002c7.34,9.52997 20.57,8.82001 28.57999,17.09998c-12.82,-0.70001 -24.95998,-9 -34.20998,-17.40997c8.07999,14 23.93999,26.98999 41.06,25.26996c6.15,-0.25 7.26,-8.15997 3.74999,-12.12c-9.31999,-12.60999 -25.16999,-20.63995 -40.35999,-22.79999m777.90003,0.08002c-14.32001,5.35999 -31.16003,10.92999 -37.91998,26.20001c-1.95001,4.54999 2.27997,9.22998 6.94995,8.95001c16.60004,0.15997 31.65002,-11.74005 39.48004,-25.58002c-9.49005,8.01996 -21.29004,16.88 -34.21002,17.40997c10.19,-8.82001 26.39001,-9.53998 33.25,-22.72998c0.96997,-4.04999 -4.77002,-5.34003 -7.54999,-4.25m-818.3,15.20001c-7.42,13.20001 -8.64999,29.67999 -2.36,43.47998c2.06,1.96002 6.62,4.67999 8.19,0.81c5.89,-11.34998 8.03,-28.70001 0.89,-38.82001c0.7,8.64001 1.36,23.01001 -2.63,30.83002c-4.7,-10.22998 3,-26.78003 -4.09,-36.29999m862.09999,0.39996c-5.07001,10.86005 0.10999,24.65002 -3.06,36.14001c-5.69,-7.77002 -2.96002,-22.46002 -2.91998,-31.07001c-7.14001,10.13 -4.99005,27.47003 0.89996,38.82001c1.56,3.87 6.13,1.15002 8.17999,-0.82001c6.41003,-13 5.41003,-32.59998 -3.09998,-43.07001m-833.09999,18.80005c0.48,15.13995 11.72,25.89996 12.79,40.83997c8.64,12.71002 4.82,28.78003 14.19,41.23999c1.12,-29.01001 -8.39,-59.75 -26.98,-82.07996m804.3,0.40997c-17.64001,22.79999 -27.76001,52.71002 -26.32001,81.66998c9.62,-12.39996 5.26001,-28.79999 14.46997,-41.19c-0.57996,-14.20001 14.17004,-28.22998 11.85004,-40.47998m-789.59998,14.79999c7.83,14.03003 13.89,29.12 14.3,45.38c12.22,-13.44 4.65,-39.40002 -14.3,-45.38m774.70002,0.45001c-18.78003,5.83002 -25.67999,31.59003 -13.65002,45.15002c-0.29999,-15.88 8.23004,-33.41003 13.65002,-45.15002m-748.40003,3.84003c-6.13,0.02997 -7.71,5.35999 -0.93999,7.47998c10.92,2.65997 -2.73,12.5 3.86,16.95001c8.09,-1.35004 10.3,-11.42004 13.67,-17.62c-5.33,-2.61005 -10.7,-5.82001 -16.59,-6.81m721.20002,0.15997c-5.22003,1.67999 -10.21002,4.07001 -15.06,6.62c3.22998,6.40997 5.57001,16.28003 13.64001,17.62c6.85999,-3.15997 -5.95001,-12.89001 2.21997,-15.63c6.84998,-2.48999 9.14001,-9.62 -0.79999,-8.60999m-765.00001,2.77002c-15.01,13.71997 -5.39,41.00995 14.36,43.14996c0.51,-8.73999 -9.05,-13.70996 -12.37,-20.62c-0.27,-6.48999 3.97,-18.33997 -1.99,-22.52997m809.59998,-0.33002c-4.95001,6.97998 -0.84003,15.87 -1.29004,23.54999c-4.06995,6.42999 -12.79999,11.46002 -12.38995,19.92999c20.01001,-2 29.56,-30.47998 13.67999,-43.47998m-802.90003,3.16998c-3.59,11.87 1.06,26.01001 11.7,34.04999c-4.50999,-10.76996 -7.34,-24.27997 -11.7,-34.04999m796.09998,-0.08997c-3.25,11.59998 -6.81,22.81 -10.90002,34.13995c10.53003,-7.88995 16.25,-23.28998 10.90002,-34.13995m-763.90003,3.58997c-0.37,13.81 9.98,3.35004 0,0m730.09998,0.69c-3.54999,1.22003 -3.72003,7.45001 0.60999,7.59003c-1.09998,-1.54999 4.44,-10.37 -0.60999,-7.59003m-700,23.08002c-15.42,8.20001 -21.85001,30.64996 -19.51,45.39996c2.71,-11.09998 7.65998,-25.21997 16.2,-33.58997c1.81999,8.46997 -9.21001,15.67999 -10.08,24.83997c-2.56001,5.24005 -5.49001,18.82001 4.45,13.53003c9.67999,-13.03003 22.12,-30.01001 16.41,-47.32001c-2.24001,-1.09998 -4.78,-4.15997 -7.47,-2.85999m670.5,-0.17999c-15.17999,6.70996 -4.07001,27.56 1.96002,37.89996c3.12,5.40002 7.83997,17.13 15.5,12.34003c1.35999,-14.22003 -10.35004,-25.14001 -13.20001,-38.04999c9.14001,6.79999 14.32996,22.48999 16.91998,33.37c1.95001,-14.72003 -4.09003,-39.41003 -21.17999,-45.56m-746.40003,22.89996c-3.67001,1.88 -4.07,6.76001 -2.15,10.06c3.99,12.77002 14.13,23.99005 26.65,28.52002c-2.34,-12.02002 -14.28001,-20.33997 -18.42001,-30.42999c9.44,3.21002 14.60001,16.33002 20.66,23.31c-2.08,-13.71002 -12.58,-29.02002 -26.74,-31.46002m821.00001,0.03003c-11.01001,5.38 -20.17999,15.28998 -23.06,27.39996c-4.85004,4.74005 1.45001,4.88 1.58002,2.25c2.89996,-8.28998 9.65997,-14.25995 15.28998,-20.70996c0.83002,-2.02002 4.77002,-1.06 3.06,1.13c-7.19,8.64001 -15.28003,17.39001 -18.38,28.45001c13.79999,-4.73004 23.53003,-17.47003 27.70001,-31.15002c1.01996,-3.60999 -2,-8.97003 -6.19,-7.37m-672.70003,103.09998c-8.34999,3.33002 -21.90999,0.79004 -24.89999,11.56c12.98,8.34003 28.43001,-1.96997 42.11,-0.02997c-9.81,7.97998 -26.97,5.48999 -37.74001,6.02997c10.35001,6.29004 27.08,6.16003 39.49001,1.85004c6.24001,-1.29999 13.02,-7.77002 9.07001,-14.39001c-7.79001,-6.09998 -18.65001,-6.17999 -28.03001,-5.02002m512.00002,-0.04999c-6.31,0.84998 -17.85004,4.47998 -12.72003,13.28998c12.24005,12.02002 35.28003,11.12006 48.66003,4.32001c-10.73999,0.13 -28.04999,1.89001 -37.78003,-6.03998c13.71002,-1.09998 28.81,8.20001 42.23999,0.10999c-6.59998,-13.58997 -27.69995,-10.96997 -40.39996,-11.67999m-461.39999,29.34003c-6.79001,1.67999 -15.82001,0.48999 -20.29001,6.82996c-0.95,7.02002 8.51001,3.09003 12.60001,4.07001c1.64999,4.21002 1.53,9.54999 5.06,12.69c8.01999,-5.57001 3.54999,-17.28998 2.63,-23.58997m425.39999,-0.24005c-0.07001,8.09003 -4.82001,17.99005 3.42999,23.89001c3.38,-3.28998 3.40002,-8.51001 5.02002,-12.75c4.07996,-0.97998 13.52997,2.95001 12.58997,-4.06c-4.60999,-6.76996 -14.03998,-5.04999 -21.03998,-7.08002m-487.50002,12.21002c3.28001,3.94 8.54001,6.91998 11.45001,11.65002c22.67999,8.29999 36.98,28.90997 58.3,39.57001c-15.64001,-24.47003 -41.93001,-42.76001 -69.75002,-51.22003m546.3,0.83002c-25.98999,9.95001 -51.06,26.65997 -65.81,50.39001c21.09998,-11.32001 36.23999,-31.21002 58.78998,-40.12c1.23999,-4.45001 16.01001,-11.86005 7.02002,-10.27002m-498.5,1.03998c-4.83,0.54004 4.22998,4.51001 5.91,6.42999c0.28998,-3.59998 -1.68002,-7.75 -5.91,-6.42999m39.82001,-0.06c-13.94,12.58002 -3.84003,39.69 8.09,50.35999c-5.33002,-11.38995 -9.19,-25.69 -6.93002,-37.63c7.17001,10.46002 0.72,30.20001 12.99002,39.53003c5.44998,-1.09003 6.66,-8.34003 4.95999,-13.04999c-0.82999,-13.90002 -2.32999,-36.94 -19.10999,-39.21002m371.89996,0.04999c-10.95001,5.07001 -14.33997,19.41003 -15.45996,30.52002c0.98999,7.35999 -4.85004,17.23999 3.75995,21.84998c13.02002,-8.42999 6.89001,-29.10999 13.68005,-39.65997c2.15997,11.90002 -1.66003,26.21997 -6.92004,37.60999c9.27002,-6.94 12.67999,-20.73999 14.62,-31.94c-0.34998,-6.73999 -0.12,-19.88995 -9.67999,-18.38m41.45001,-0.15997c-3.78998,-0.23999 -4.25,3.71997 -4.38,6.59998c2.31,-2.20996 12.13,-6.77997 4.38,-6.59998m-535.29997,0.98999c1.11,14.16998 9.72,26.72003 21.05998,34.84003c3.54001,1.71997 11.35001,1.17999 8.82001,-4.81c-1.81001,-12.57001 -9.82001,-25.49005 -21.75,-30.33002c5.03,8.27997 14.39,15.51001 15.72,25.64996c-9.03,-5.04999 -12.36,-21.64996 -23.85001,-25.34998m609.59998,0.12c-12.01001,6.22998 -22.47998,22.45001 -18.89001,34.95001c16.40002,0.02997 26.72003,-20.12 28.34003,-35.06c-10.78003,3.76001 -15.03003,19.01001 -23.03003,25.40002c-2.65997,-8.21002 14.27002,-20.57001 13.58002,-25.29004m-554.40001,0.66998c13.92999,6.99005 28.53,17.24005 39.62999,29.13c-1.25,-20.75995 -20.28,-32.19 -39.62999,-29.13m490.79997,0.34003c-12.40997,5.06 -19.75,15.46002 -21.62,28.78003c11.65997,-10.64001 23.22998,-23.06006 39.31,-27.63c-2.09003,-2.92004 -12.58002,-0.40002 -17.69,-1.15002m-494,14.62c3.72,5.02002 7.34,10.09998 10.61,15.44c5.72,3.37 13.00999,2.81 18.84,6.28003c-8.44,-8.63 -19.37999,-15.04004 -29.45,-21.72003m514.59998,0.28003c-9.78998,6.83997 -20.27002,13.04999 -28.97998,21.29999c7.09998,-4.58002 18.87,-1.58002 22.31,-10.95001c1.10999,-2.90002 7.10999,-8.79999 6.66998,-10.34998m-521.09998,2c-4.02,19.32996 17.91,35.33997 36.36,26.81995c-3.33,-8.63995 -15.84,-5.85999 -22.28,-10.40997c-3.75,-5.21002 -6.75,-15.82001 -14.08,-16.40997m525.29999,0.28998c-4.84998,4.52997 -8.37,10.15997 -11.20001,16.12c-6.46997,4.28003 -18.87,2.17999 -22.17999,10.34003c12,3.91998 29.71002,2.34998 33.83002,-11.82001c1.13,-4.21002 7.47998,-15.72003 -0.45001,-14.64001m-297.60001,30.14001c-11.97,2.76996 -21.91,10.70996 -28.70999,20.70996c-4.17001,3.75 -10.03,9.77002 -5.79001,15.57001c15.56,-1.23999 21.87,-18.95001 34.16,-24.65997c-5.44998,12.02997 -18.04001,20.64001 -27.72,27.60999c15.24002,-3.90997 30.16,-13.69 36.45001,-28.62c2.60999,-5.59998 -2.44,-12.38 -8.39001,-10.60999m69.87003,-0.12c-5.28003,0.48999 -7.29001,7.01996 -5.12003,11.38995c6.47,14.5 21.07999,24.21002 36.12003,27.99005c-9.70001,-6.88 -22.08002,-15.77002 -27.67999,-27.64001c12.73999,5.28998 18.34998,23.72998 34.15997,24.62c4.37,-5.91003 -2.23999,-11.92999 -6.21002,-16.07001c-7.25995,-10.25 -18.28998,-19.53998 -31.26996,-20.28998m-33.41,5.94c-4.39001,6.46997 -15.18002,11.46997 -11.38,20.69c4.63,-0.56 7.63998,-4.22003 11.00998,-6.99005c3.97,1.80005 6.69,6.70001 11.69,6.99005c3.86002,-9.21002 -7.13998,-14.30005 -11.31998,-20.69m-231.30002,8.03998c-7.36,-1.89001 -10.34,4.29999 -6.31,9.52997c11.26001,8.87006 26.67001,13.84003 40.86002,9.96002c-6.91,-9.89996 -25.5,-7.14996 -32.81001,-15.58997c10.81001,0.72998 21.34001,3.94995 30.98,8.71997c-7.07001,-9.66998 -20.95999,-13.54999 -32.72,-12.62m452.79999,0.15002c-7.97998,2.46997 -18.47998,4.56 -22.89001,12.45996c9.66998,-4.69 20.15002,-8.16998 31.01001,-8.70996c-7.42999,8.44 -25.78998,5.69 -32.89001,15.57996c12.17004,3.45001 25.63,0.08002 36.12,-6.62c4.70001,-1.56 7.99005,-7.08002 6.01001,-11.77997c-5.59998,-1.59003 -11.59998,-1.41003 -17.35999,-0.92999m-221.80002,9.69995c-13.09,6.39001 14.65002,4.96002 0,0m-1.38998,8.64001c-9.17999,-1.14996 -16.89001,6.31 -22.5,11.97998c15.89999,-4.81995 32.57001,-4.70996 48.48001,0c-6.28,-6.91998 -15.48001,-14.00995 -25.98001,-11.97998m-2.01999,12.66998c-13.43002,2.20001 -27.22,1.29004 -39.87003,7.52002c14.64001,7.64001 28.19,-4.28998 43.20001,1.13c15.32999,-5.03998 28.69,5.57001 44.06,-0.90997c-14.98001,-5.96002 -31.38998,-7.57001 -47.38998,-7.74005m-6.66,11c-7.02002,-1.15997 -9.06,3.54004 -0.51001,3.64001c9.32999,6.63 19.82001,0.25 28.14999,-2.37c-7.63,-3.40002 -18.69,1.77002 -27.63998,-1.27002m-10.61002,5.84003c-3.63,3 3.42999,7.34003 6.05002,9.02002c11.34,10.72998 30.25,4.89996 37.31998,-7.59003c-6.64999,-4.58997 -15.38998,2.53003 -22.64999,4.53998c-6.66,-2.59998 -13.25998,-7.08997 -20.72,-5.96997m-41.32999,7.04999c2.59,5.41003 23.57001,4.21002 27.72,13.5c-11.67999,-2.41998 -22.47,-8.5 -34.63,-8.92999c4.70001,10.08002 18.07001,15.29999 28.87,16.66998c5.10001,1.61005 15.5,0.97003 14.61002,-6.35999c-8.71002,-10.64001 -22.97,-16.01001 -36.57001,-14.88m114.79999,0.14001c-10.15997,2.19 -21.01999,6.53998 -26.85999,15.45001c0.54999,6.96997 9.46997,7.33997 14.65997,5.48999c10.87,-1.20001 24.36005,-6.29999 29.06,-16.5c-12.00995,-0.27002 -24.25995,8.06 -34.53998,8.10999c7.09003,-6.5 18.82001,-9.21997 28.54999,-11.14001c-1.20996,-3.10999 -7.51001,-1.02997 -10.87,-1.40997zm38.20001,-896.09998c12.09998,-0.15 22.64001,6.77 32.84998,12.37c8.47003,4.39 2.04004,17.95 10.82001,22.24c8.82001,7.67 22.47003,5.4 27.76001,-5.39c14.42999,-3.85 32.98999,-0.29 44.17999,10.46c5.67999,4.97 5.91998,16.23 -1.95001,19.13c-17.70996,7.44 -39.14996,0.46 -52.37,-12.84c-3.85999,-4.31 -9.87,-1.42 -14.32996,-3.43c-8.82001,-9.22 -22.29004,-1.28 -33.09003,-5.55c-11.47998,-4.49 -26.20001,-9.79 -28.95001,-23.41c-1.22998,-8.64 7.35999,-13.76 15.08002,-13.58m-4.46002,6.89c-5.06,0.81 -8.03998,7.01 -4.47998,11.2c9.72998,10.25 25.72998,17.25 39.09003,14.5c-9.95001,-5.2 -23.55005,-9.47 -34.40002,-15.14c-0.04999,-1.06 0.28998,-1.99 1.01001,-2.79c11.62,4.57 23.57001,8.25 35.37,12.35c2.81,0.81 1.32001,-3.7 0.12,-4.81c-9.40002,-9.61 -22.59998,-17.25 -36.59998,-15.31m81.90997,28.21c-2.5,0.45 -7.22998,0.76 -7.63,3.46c10.97003,6.52 26.88,5.91 36.70001,13.24c-11.27002,0.45 -25.39001,-4.12 -37.66998,-7.02c8.01996,9.97 23.88,13.16 36.76001,12.28c6.12,1.33 11.66998,-6.56 7.07996,-11.62c-8.62,-9.47 -22.89996,-12.07 -35.23999,-10.34zm-261.39999,-35.07c21.60001,-4.07 21.76999,25.14 3.92999,29.85c-14.56998,13.23 -36.06998,2.23 -50.44998,13.48c-11.80002,-2.65 -18.04001,10.16 -28.03,13.75c-11.60001,4.05 -25.08002,7.94 -36.71002,1.67c-6.85999,-2.49 -8.09998,-12.41 -3.34998,-17.44c8.78,-11.36 24.47998,-12.55 37.67999,-14.13c10.45999,-2.16 13.07999,14.3 23.72998,11.94c13.04001,0.35 18.14001,-11.47 18.61002,-22.55c8.63998,-9.4 22.29999,-14.04 34.59,-16.57m-3.63998,7.06c-10.41,2.96 -24.99002,8.59 -27.61002,19.98c12.47,-3.22 24.67999,-8.05 36.87,-12.39c0.74002,0.78 1.07001,1.7 1.01001,2.77c-10.84,5.67 -24.45001,9.94 -34.39001,15.14c13.74002,2.77 30.54001,-4.67 39.94,-15.73c3.76001,-9.63 -9.35001,-12.48 -15.81998,-9.77m-86.65002,28.16c-7.50998,1.59 -15.88,4.39 -20.47998,10.94c-3.51001,4.67 1.26999,11.71 6.76999,10.87c13.10001,0.34 29.35001,-1.89 37.54001,-12.28c-12.34,2.84 -26.26001,7.59 -37.67001,7.02c9.60001,-7.76 27.25,-6.09 36.92001,-14.06c-6.86002,-4.21 -15.42001,-3.26 -23.08002,-2.49z"/>
  <text style="cursor: move;" transform="matrix(23.7611 0 0 20.747 -14741.2 -11649.1)" stroke="#000" xml:space="preserve" text-anchor="start" font-family="Oswald, sans-serif" font-size="24" id="svg_2" y="592.52778" x="633.90037" stroke-width="0" fill="#999999">5</text>
 </g>
</svg>